<?xml version="1.0" standalone="no"?>
<!DOCTYPE svg PUBLIC "-//W3C//DTD SVG 20010904//EN"
 "http://www.w3.org/TR/2001/REC-SVG-20010904/DTD/svg10.dtd">
<svg version="1.0" xmlns="http://www.w3.org/2000/svg"
 width="180.000000pt" height="180.000000pt" viewBox="0 0 180.000000 180.000000"
 preserveAspectRatio="xMidYMid meet">

<g transform="translate(0.000000,180.000000) scale(0.100000,-0.100000)"
fill="#0c74b0" stroke="none">
<path d="M776 1749 c-96 -24 -227 -84 -310 -143 -89 -63 -213 -199 -269 -294
-92 -157 -137 -317 -137 -491 0 -162 7 -196 44 -225 l32 -24 -4 118 c-5 148
13 238 73 358 136 272 415 431 704 402 163 -17 288 -77 406 -195 89 -89 138
-170 176 -295 30 -96 32 -270 5 -370 -58 -216 -210 -397 -410 -490 l-79 -37
45 -12 c43 -12 50 -11 116 17 443 186 686 723 533 1178 -86 256 -299 450 -558
508 -99 22 -266 20 -367 -5z"/>
<path d="M629 1117 c-189 -93 -304 -277 -304 -487 0 -115 26 -200 83 -275 181
-238 538 -215 726 48 68 96 98 181 104 302 4 87 2 103 -14 123 -19 23 -19 23
-20 -60 -3 -184 -115 -336 -287 -389 -217 -68 -427 66 -468 297 -28 158 67
342 216 420 34 18 50 31 42 36 -18 11 -28 10 -78 -15z"/>
<path d="M826 1007 c-126 -72 -86 -258 59 -275 59 -6 118 27 145 83 25 52 25
78 -1 131 -15 31 -32 48 -63 63 -54 27 -91 26 -140 -2z"/>
</g>
</svg>
